<?xml version="1.0" encoding="UTF-8"?>
<svg width="32px" height="32px" viewBox="0 0 32 32" version="1.1" xmlns="http://www.w3.org/2000/svg">
    <g stroke="none" stroke-width="1" fill="none" fill-rule="evenodd">
        <rect fill="#F7DF1E" x="0" y="0" width="32" height="32" rx="4"/>
        <path d="M20.5,20.5 C21.5,21.5 22.5,22 24,22 C25.5,22 26.5,21.5 26.5,20.5 C26.5,19.5 25.5,19 24,19 L23,19 L23,17 L24,17 C26,17 27,16 27,14.5 C27,13 26,12 24.5,12 C23,12 22,12.5 21,13.5 L20,12.5 C21,11.5 22.5,11 24,11 C26.5,11 28,12.5 28,14.5 C28,16 27,17.5 25.5,18 C27,18.5 28,19.5 28,21 C28,23 26.5,24 24.5,24 C22.5,24 21,23.5 20,22.5 L20.5,20.5 Z M15.5,20.5 C16.5,21.5 17.5,22 19,22 C20.5,22 21.5,21.5 21.5,20.5 C21.5,19.5 20.5,19 19,19 L18,19 L18,17 L19,17 C21,17 22,16 22,14.5 C22,13 21,12 19.5,12 C18,12 17,12.5 16,13.5 L15,12.5 C16,11.5 17.5,11 19,11 C21.5,11 23,12.5 23,14.5 C23,16 22,17.5 20.5,18 C22,18.5 23,19.5 23,21 C23,23 21.5,24 19.5,24 C17.5,24 16,23.5 15,22.5 L15.5,20.5 Z" fill="#000000"/>
    </g>
</svg> 