<?xml version="1.0" encoding="UTF-8"?>
<svg width="32px" height="32px" viewBox="0 0 32 32" version="1.1" xmlns="http://www.w3.org/2000/svg">
    <g stroke="none" stroke-width="1" fill="none" fill-rule="evenodd">
        <path d="M15.885,0 C7.108,0 6.5,3.212 6.5,3.212 L6.5,8.99 L10.5,8.99 L10.5,9.99 L3.212,9.99 C3.212,9.99 0,9.402 0,16.885 C0,24.368 3.212,23.779 3.212,23.779 L8.99,23.779 L8.99,19.779 L9.99,19.779 L9.99,26.779 C9.99,26.779 9.402,30 16.885,30 C24.368,30 23.779,26.779 23.779,26.779 L23.779,20.99 L19.779,20.99 L19.779,19.99 L26.779,19.99 C26.779,19.99 30,19.402 30,11.885 C30,4.368 26.779,3.779 26.779,3.779 L20.99,3.779 L20.99,7.779 L19.99,7.779 L19.99,3.212 C19.99,3.212 19.402,0 15.885,0 Z M6.5,6.5 C7.328,6.5 8,5.828 8,5 C8,4.172 7.328,3.5 6.5,3.5 C5.672,3.5 5,4.172 5,5 C5,5.828 5.672,6.5 6.5,6.5 Z M25.5,25.5 C26.328,25.5 27,24.828 27,24 C27,23.172 26.328,22.5 25.5,22.5 C24.672,22.5 24,23.172 24,24 C24,24.828 24.672,25.5 25.5,25.5 Z" fill="#3776AB"/>
    </g>
</svg> 